<?xml version="1.0" encoding="utf-8"?>
<!-- Generator: Adobe Illustrator 27.5.0, SVG Export Plug-In . SVG Version: 6.00 Build 0)  -->
<svg version="1.1" xmlns="http://www.w3.org/2000/svg" xmlns:xlink="http://www.w3.org/1999/xlink" x="0px" y="0px"
	 viewBox="0 0 3710 3710" style="enable-background:new 0 0 3710 3710;" xml:space="preserve">
<g id="Background">
	<g>
		<g>
			<rect style="fill:#FFFFFF;" width="3710" height="3710"/>
		</g>
	</g>
</g>
<g id="Illustration">
	<g>
		<linearGradient id="SVGID_1_" gradientUnits="userSpaceOnUse" x1="3606.5906" y1="4055.8916" x2="1132.649" y2="983.4115">
			<stop  offset="0" style="stop-color:#DAE3FE"/>
			<stop  offset="1" style="stop-color:#E9EFFD"/>
		</linearGradient>
		<path style="fill:url(#SVGID_1_);" d="M2925.993,2844.217c-56.825,59.823-110.593,98.403-153.074,128.883
			c-499.354,358.292-1090.222,253.852-1215.798,228.346c-185.437-37.663-543.881-110.465-803.03-415.219
			c-392.071-461.067-331.02-1187.466-26.903-1666.972c55.628-87.71,349.47-574.52,946.702-652.589
			c361.438-47.246,782.76,48.044,1087.869,303.665C3402.21,1306.902,3356.616,2390.871,2925.993,2844.217z"/>
		<g>
			
				<linearGradient id="SVGID_00000053542691835052308680000004588162738536436885_" gradientUnits="userSpaceOnUse" x1="2438.9683" y1="-320.8546" x2="2471.0867" y2="830.0867" gradientTransform="matrix(0.994 -0.1097 0.1097 0.994 -398.5783 1011.5705)">
				<stop  offset="0" style="stop-color:#4F52FF"/>
				<stop  offset="1" style="stop-color:#4042E2"/>
			</linearGradient>
			<path style="fill:url(#SVGID_00000053542691835052308680000004588162738536436885_);" d="M1891.2,1221.507l52.254-31.443
				c25.431,12.821,53.089,21.681,82.105,25.821l24.874,55.639c0.872,1.953,2.887,3.134,5.016,2.946l72.866-6.454
				c2.129-0.189,3.905-1.709,4.421-3.782l14.707-59.146c27.836-9.177,53.506-22.758,76.287-39.852l56.969,21.769
				c1.997,0.762,4.258,0.175,5.63-1.464l46.96-56.088c1.373-1.64,1.554-3.969,0.451-5.8l-31.443-52.254
				c12.822-25.431,21.68-53.09,25.821-82.105l55.639-24.874c1.952-0.872,3.135-2.886,2.946-5.016l-6.455-72.867
				c-0.188-2.13-1.707-3.905-3.782-4.42l-59.145-14.707c-9.176-27.836-22.757-53.507-39.851-76.287l21.769-56.97
				c0.762-1.996,0.175-4.257-1.464-5.629l-56.088-46.96c-1.639-1.373-3.968-1.554-5.8-0.452l-52.254,31.444
				c-25.431-12.823-53.09-21.681-82.105-25.821l-24.875-55.64c-0.872-1.951-2.886-3.134-5.016-2.946l-72.867,6.455
				c-2.129,0.188-3.904,1.707-4.42,3.782l-14.707,59.146c-27.836,9.176-53.507,22.758-76.288,39.851l-56.968-21.768
				c-1.997-0.764-4.259-0.175-5.631,1.464l-46.96,56.088c-1.372,1.639-1.554,3.968-0.452,5.8l31.443,52.254
				c-12.822,25.431-21.68,53.09-25.82,82.105l-55.64,24.875c-1.951,0.871-3.134,2.887-2.945,5.016l6.454,72.865
				c0.189,2.13,1.707,3.905,3.781,4.421l59.146,14.707c9.177,27.835,22.758,53.506,39.851,76.287l-21.768,56.968
				c-0.763,1.997-0.175,4.257,1.464,5.631l56.088,46.96C1887.038,1222.427,1889.368,1222.609,1891.2,1221.507z"/>
			<path style="fill:#91B3FA;" d="M2045.213,1018.768c-21.48-5.87-39.823-21.857-47.696-44.424
				c-12.701-36.409,6.588-76.36,42.996-89.059c17.637-6.15,36.612-5.069,53.433,3.051c16.822,8.12,29.473,22.307,35.623,39.944
				c6.154,17.636,5.069,36.612-3.051,53.433c-8.122,16.819-22.307,29.472-39.941,35.623l-0.003,0.002
				C2072.738,1022.164,2058.383,1022.368,2045.213,1018.768z M2079.238,893.404c-11.593-3.168-23.858-2.771-35.448,1.273
				c-31.229,10.894-47.773,45.161-36.879,76.39c10.894,31.229,45.165,47.769,76.389,36.876l-0.003,0.002
				c31.229-10.896,47.773-45.164,36.881-76.387c-5.277-15.13-16.131-27.297-30.559-34.262
				C2086.249,895.668,2082.774,894.371,2079.238,893.404z M2084.937,1012.641l0.047,0.013L2084.937,1012.641z"/>
			<g>
				<g style="opacity:0.64;">
					<path style="fill:#FFFFFF;" d="M1757.755,1213.017c-2.387-0.653-4.604-2.022-6.3-4.074
						c-4.348-5.265-8.608-10.699-12.661-16.156c-4.096-5.513-2.949-13.302,2.564-17.398c5.512-4.101,13.304-2.946,17.398,2.564
						c3.804,5.116,7.797,10.213,11.874,15.15c4.374,5.297,3.627,13.135-1.667,17.507
						C1765.721,1213.29,1761.526,1214.047,1757.755,1213.017z"/>
					<path style="fill:#FFFFFF;" d="M1710.565,1140.854c-3.273-0.895-6.168-3.116-7.822-6.383
						c-6.32-12.484-12.065-25.468-17.075-38.591c-2.451-6.416,0.764-13.604,7.18-16.054c6.411-2.45,13.603,0.762,16.054,7.18
						c4.707,12.323,10.1,24.513,16.032,36.236c3.102,6.128,0.649,13.608-5.479,16.71
						C1716.593,1141.401,1713.433,1141.638,1710.565,1140.854z M1675.573,1039.614c-4.4-1.203-7.971-4.787-8.926-9.565
						c-2.752-13.775-4.799-27.833-6.089-41.783c-0.631-6.838,4.401-12.895,11.241-13.527c6.834-0.628,12.894,4.405,13.527,11.241
						c1.208,13.084,3.128,26.271,5.712,39.197c1.345,6.736-3.024,13.285-9.759,14.631
						C1679.32,1040.2,1677.376,1040.107,1675.573,1039.614z M1669.198,932.684c-5.644-1.543-9.58-6.921-9.105-12.971
						c1.101-13.968,2.957-28.048,5.519-41.853c1.251-6.753,7.742-11.211,14.495-9.958c6.731,1.258,11.211,7.742,9.958,14.495
						c-2.402,12.953-4.145,26.165-5.175,39.268c-0.539,6.847-6.527,11.961-13.375,11.422
						C1670.716,933.024,1669.943,932.888,1669.198,932.684z M1692.174,828.07c-0.345-0.094-0.69-0.204-1.031-0.329
						c-6.445-2.371-9.748-9.521-7.375-15.965c4.844-13.165,10.434-26.218,16.611-38.797c3.026-6.163,10.485-8.709,16.644-5.679
						c6.163,3.026,8.706,10.48,5.679,16.644c-5.798,11.809-11.046,24.062-15.594,36.421
						C1704.863,826.469,1698.334,829.753,1692.174,828.07z M1742.456,733.512c-1.399-0.382-2.751-1.016-3.996-1.913
						c-5.569-4.02-6.826-11.794-2.806-17.363c8.214-11.377,17.111-22.439,26.449-32.883c4.577-5.119,12.435-5.57,17.559-0.98
						c5.12,4.577,5.56,12.437,0.98,17.559c-8.762,9.8-17.112,20.183-24.819,30.86
						C1752.699,733.117,1747.315,734.84,1742.456,733.512z M1816.396,656.066c-2.465-0.674-4.744-2.11-6.454-4.264
						c-4.268-5.379-3.37-13.201,2.012-17.471c10.987-8.719,22.554-16.946,34.381-24.455c5.795-3.681,13.481-1.971,17.165,3.833
						c3.68,5.8,1.965,13.485-3.833,17.165c-11.096,7.044-21.948,14.762-32.255,22.941
						C1824.188,656.373,1820.084,657.074,1816.396,656.066z M1908.625,601.657c-3.569-0.975-6.666-3.524-8.205-7.2
						c-2.649-6.339,0.342-13.622,6.676-16.272c7.569-3.163,15.371-6.153,23.188-8.884c5.458-1.903,11.016-3.71,16.523-5.372
						c6.576-1.995,13.512,1.729,15.499,8.307c1.988,6.574-1.732,13.514-8.308,15.499c-5.174,1.564-10.396,3.262-15.519,5.05
						c-7.346,2.565-14.678,5.375-21.79,8.346C1914.032,602.244,1911.205,602.362,1908.625,601.657z M2012.115,574.047
						c-4.716-1.289-8.422-5.308-9.066-10.459c-0.849-6.817,3.987-13.031,10.801-13.881c13.926-1.736,28.095-2.751,42.114-3.016
						c6.886-0.117,12.539,5.336,12.67,12.2c0.128,6.866-5.333,12.539-12.2,12.67c-13.151,0.248-26.443,1.198-39.504,2.828
						C2015.267,574.597,2013.638,574.464,2012.115,574.047z"/>
					<path style="fill:#FFFFFF;" d="M2119.397,575.562c-6.012-1.643-9.965-7.568-8.999-13.876
						c1.04-6.789,7.386-11.447,14.175-10.408c6.688,1.025,13.482,2.245,20.193,3.623c6.696,1.382,11.057,7.957,9.676,14.688
						c-1.385,6.727-7.96,11.059-14.688,9.676c-6.301-1.297-12.675-2.442-18.949-3.404
						C2120.325,575.788,2119.854,575.687,2119.397,575.562z"/>
				</g>
				<g style="opacity:0.64;">
					<path style="fill:#FFFFFF;" d="M2393.664,756.692c-2.929-0.8-5.573-2.669-7.296-5.456c-3.344-5.409-6.891-10.829-10.541-16.113
						c-3.907-5.651-2.49-13.394,3.159-17.299c5.644-3.911,13.392-2.499,17.299,3.159c3.89,5.628,7.672,11.406,11.238,17.174
						c3.613,5.842,1.803,13.505-4.039,17.116C2400.429,757.163,2396.874,757.569,2393.664,756.692z"/>
					<path style="fill:#FFFFFF;" d="M2048.343,1355.379c-5.417-1.48-9.321-6.516-9.142-12.377
						c0.212-6.864,5.946-12.259,12.811-12.05c12.934,0.398,26.041,0.12,38.957-0.825c6.845-0.502,12.805,4.646,13.308,11.495
						c0.502,6.85-4.646,12.808-11.496,13.308c-13.769,1.008-27.742,1.304-41.531,0.882
						C2050.245,1355.783,2049.271,1355.633,2048.343,1355.379z M2153.167,1344.329c-4.215-1.152-7.697-4.496-8.81-9.04
						c-1.636-6.672,2.445-13.405,9.116-15.039c11.784-2.891,23.604-6.394,35.132-10.414l2.22-0.78
						c6.468-2.302,13.585,1.074,15.886,7.545c2.303,6.471-1.073,13.583-7.544,15.886l-2.374,0.837
						c-12.269,4.277-24.85,8.006-37.397,11.082C2157.269,1344.926,2155.137,1344.868,2153.167,1344.329z M2251.274,1305.864
						c-3.114-0.851-5.897-2.908-7.592-5.952c-3.337-6.003-1.174-13.575,4.827-16.914c11.312-6.288,22.419-13.236,33.008-20.648
						c5.63-3.94,13.379-2.575,17.319,3.056c3.939,5.627,2.571,13.38-3.056,17.319c-11.29,7.903-23.129,15.308-35.184,22.012
						C2257.639,1306.382,2254.299,1306.691,2251.274,1305.864z M2335.55,1242.707c-2.04-0.557-3.966-1.646-5.562-3.26
						c-4.823-4.888-4.771-12.763,0.118-17.588c9.208-9.084,18.052-18.758,26.287-28.752c4.366-5.303,12.197-6.061,17.506-1.69
						c5.301,4.367,6.056,12.206,1.689,17.506c-8.775,10.65-18.2,20.961-28.012,30.643
						C2344.302,1242.795,2339.69,1243.839,2335.55,1242.707z M2399.94,1159.299c-1.005-0.275-1.992-0.68-2.941-1.227
						c-5.949-3.431-7.99-11.034-4.562-16.984c6.463-11.211,12.425-22.891,17.72-34.719c2.803-6.267,10.177-9.081,16.431-6.269
						c6.269,2.806,9.075,10.163,6.269,16.431c-5.638,12.595-11.988,25.038-18.871,36.978
						C2411.1,1158.515,2405.263,1160.754,2399.94,1159.299z M2439.887,1061.781c-6.561-1.793-10.474-8.535-8.753-15.133
						c3.265-12.518,5.913-25.359,7.874-38.163c1.04-6.789,7.385-11.45,14.174-10.411c6.842,1.046,11.448,7.384,10.411,14.174
						c-2.088,13.646-4.912,27.332-8.39,40.676c-1.733,6.645-8.525,10.628-15.173,8.896
						C2439.983,1061.807,2439.934,1061.794,2439.887,1061.781z M2452.466,957.16c-5.201-1.422-9.062-6.137-9.151-11.8
						c-0.203-12.938-1.09-26.019-2.633-38.882c-0.818-6.818,4.047-13.01,10.867-13.827c6.823-0.825,13.012,4.047,13.828,10.867
						c1.644,13.709,2.589,27.655,2.808,41.448c0.107,6.868-5.371,12.522-12.237,12.632
						C2454.741,957.616,2453.572,957.463,2452.466,957.16z M2436.588,852.974c-4.025-1.1-7.403-4.201-8.663-8.497
						c-1.783-6.07-3.753-12.203-5.855-18.229c-2.168-6.218-4.531-12.471-7.025-18.584c-2.592-6.361,0.462-13.619,6.821-16.213
						c6.362-2.595,13.619,0.464,16.212,6.821c2.653,6.509,5.169,13.167,7.477,19.785c2.238,6.413,4.334,12.944,6.233,19.41
						c1.936,6.59-1.837,13.503-8.426,15.436C2441.066,853.578,2438.735,853.56,2436.588,852.974z"/>
					<path style="fill:#FFFFFF;" d="M1963.828,1343.455c-6.527-1.784-10.446-8.48-8.767-15.066
						c1.696-6.655,8.464-10.674,15.121-8.979c6.172,1.574,12.487,3.013,18.771,4.277c6.755,1.385,11.095,7.912,9.739,14.644
						c-1.355,6.736-7.912,11.095-14.645,9.738c-6.697-1.347-13.428-2.882-20.008-4.559
						C1963.969,1343.494,1963.899,1343.474,1963.828,1343.455z"/>
				</g>
			</g>
			<path style="fill:#91B3FA;" d="M2040.223,1131.279c-2.348-0.642-3.926-2.926-3.617-5.412c0.03-0.239,0.076-0.473,0.138-0.698
				c0.64-2.35,2.925-3.932,5.414-3.622c12.027,1.5,24.315,1.71,36.522,0.633l0,0c87.247-7.731,153.609-79.855,156.325-165.3
				c0.216-6.825,0.025-13.736-0.591-20.706c-8.345-94.214-91.783-164.064-186.003-155.733c-45.64,4.045-86.976,25.617-116.39,60.751
				c-16.115,19.247-27.593,41.299-34.017,64.811c-5.299,19.408-7.155,39.808-5.327,60.444c2.744,30.975,13.805,60.57,31.986,85.59
				c0.924,1.272,1.157,2.834,0.772,4.24c-0.287,1.052-0.921,2.017-1.873,2.708c-2.217,1.617-5.332,1.121-6.948-1.101
				c-19.238-26.474-30.944-57.792-33.845-90.56c-1.934-21.833,0.029-43.417,5.635-63.947c6.794-24.877,18.94-48.21,35.99-68.573
				c31.12-37.169,74.853-59.994,123.141-64.272c99.685-8.831,187.959,65.088,196.79,164.765c1.952,22.024-0.138,43.493-5.649,63.669
				c-19.44,71.145-81.458,126.245-159.116,133.123l0,0c-11.867,1.05-23.806,0.944-35.544-0.312
				c-0.358-0.037-0.714-0.077-1.071-0.116c-0.671-0.078-1.344-0.156-2.016-0.242
				C2040.686,1131.389,2040.45,1131.341,2040.223,1131.279z"/>
		</g>
		<g>
			<g style="opacity:0.64;">
				<path style="fill:#FFFFFF;" d="M478.422,1247.202c-2.402-2.185-3.662-5.518-3.049-8.95c0.929-5.201,1.926-10.396,2.988-15.585
					c1.083-5.285,6.245-8.692,11.53-7.609c5.286,1.079,8.69,6.244,7.609,11.53c-1.03,5.028-1.996,10.06-2.895,15.097
					c-0.948,5.312-6.022,8.849-11.332,7.899C481.392,1249.249,479.735,1248.397,478.422,1247.202z"/>
				<path style="fill:#FFFFFF;" d="M493.319,1183.527c-2.673-2.431-3.887-6.256-2.812-9.959c2.889-9.934,6.062-19.919,9.432-29.674
					c1.763-5.099,7.324-7.806,12.422-6.044c5.096,1.772,7.806,7.324,6.044,12.422c-3.267,9.451-6.34,19.125-9.138,28.75
					c-1.506,5.18-6.927,8.16-12.107,6.653C495.684,1185.245,494.385,1184.496,493.319,1183.527z M520.742,1107.926
					c-3.016-2.743-4.098-7.204-2.371-11.147c4.148-9.465,8.587-18.953,13.195-28.201c2.404-4.828,8.269-6.791,13.096-4.386
					c4.82,2.399,6.793,8.271,4.388,13.098c-4.465,8.962-8.767,18.158-12.786,27.33c-2.166,4.941-7.926,7.191-12.867,5.028
					C522.396,1109.208,521.506,1108.621,520.742,1107.926z M557.68,1036.485c-3.376-3.071-4.231-8.192-1.791-12.252
					c5.341-8.886,10.952-17.731,16.681-26.289c3.002-4.483,9.067-5.684,13.551-2.683c4.484,3.008,5.684,9.069,2.684,13.551
					c-5.552,8.295-10.994,16.87-16.171,25.483c-2.779,4.623-8.78,6.12-13.404,3.341
					C558.667,1037.298,558.149,1036.911,557.68,1036.485z M603.439,970.342c-3.766-3.425-4.286-9.232-1.078-13.283
					c6.413-8.103,13.117-16.153,19.926-23.928c3.553-4.059,9.725-4.469,13.783-0.914c4.131,3.556,4.467,9.724,0.914,13.783
					c-6.597,7.534-13.093,15.335-19.307,23.185c-3.349,4.229-9.492,4.944-13.721,1.595
					C603.778,970.639,603.604,970.492,603.439,970.342z M657.357,910.686c-0.151-0.137-0.297-0.278-0.44-0.426
					c-3.759-3.868-3.671-10.052,0.2-13.812c7.412-7.202,15.121-14.328,22.912-21.175c4.049-3.561,10.221-3.182,13.785,0.887
					c3.561,4.052,3.164,10.223-0.887,13.785c-7.547,6.636-15.017,13.538-22.198,20.514
					C667.006,914.076,661.144,914.13,657.357,910.686z M718.622,858.501c-0.459-0.417-0.884-0.885-1.268-1.401
					c-3.222-4.326-2.327-10.444,2-13.667c8.293-6.177,16.858-12.233,25.453-17.997c4.478-3.003,10.542-1.799,13.554,2.673
					c3.003,4.481,1.808,10.55-2.673,13.553c-8.33,5.586-16.63,11.452-24.667,17.439C727.212,861.938,722.01,861.582,718.622,858.501
					z M786.125,814.729c-0.759-0.691-1.422-1.513-1.952-2.458c-2.635-4.707-0.953-10.659,3.754-13.294
					c9.007-5.04,18.278-9.932,27.555-14.538c4.831-2.399,10.695-0.417,13.092,4.404c2.4,4.832,0.427,10.693-4.404,13.092
					c-8.991,4.466-17.975,9.206-26.704,14.09C793.705,818.13,789.148,817.479,786.125,814.729z M858.707,780.069
					c-1.058-0.963-1.922-2.174-2.489-3.592c-2.005-5.009,0.43-10.693,5.438-12.698c9.588-3.838,19.408-7.492,29.185-10.861
					c5.103-1.757,10.653,0.948,12.417,6.054c1.757,5.1-0.953,10.659-6.054,12.417c-9.476,3.264-18.994,6.808-28.288,10.526
					C865.327,783.352,861.388,782.508,858.707,780.069z M935.137,755.049c-1.361-1.237-2.386-2.872-2.879-4.785
					c-1.344-5.225,1.801-10.55,7.024-11.895c9.991-2.572,20.193-4.933,30.324-7.018c5.284-1.091,10.449,2.315,11.536,7.598
					c1.087,5.283-2.314,10.449-7.598,11.536c-9.821,2.022-19.709,4.311-29.391,6.804
					C940.842,758.139,937.49,757.189,935.137,755.049z M1014.141,740.061c-1.667-1.516-2.821-3.612-3.118-6.024
					c-0.663-5.353,3.14-10.232,8.495-10.893c10.244-1.268,20.663-2.297,30.963-3.062c5.377-0.396,10.061,3.64,10.464,9.021
					c0.398,5.38-3.641,10.065-9.02,10.464c-9.982,0.739-20.078,1.737-30.008,2.965
					C1018.974,742.897,1016.175,741.911,1014.141,740.061z M1094.4,735.37c-1.98-1.801-3.216-4.403-3.198-7.288
					c0.035-5.395,4.434-9.74,9.829-9.708c10.303,0.065,20.76,0.388,31.083,0.959c5.382,0.3,9.508,4.906,9.212,10.295
					c-0.3,5.385-4.909,9.51-10.295,9.212c-10.004-0.555-20.136-0.867-30.119-0.929C1098.402,737.893,1096.119,736.933,1094.4,735.37
					z M1174.567,741.085c-2.302-2.094-3.566-5.246-3.112-8.558c0.733-5.345,5.66-9.085,11.003-8.351
					c10.211,1.399,20.531,3.076,30.675,4.98c5.305,0.995,8.793,6.103,7.797,11.402c-0.996,5.302-6.1,8.793-11.402,7.797
					c-9.829-1.845-19.83-3.469-29.722-4.826C1177.774,743.252,1175.975,742.366,1174.567,741.085z M1253.273,757.158
					c-2.63-2.393-3.856-6.14-2.854-9.807c1.422-5.203,6.794-8.269,11.998-6.848c9.972,2.726,20.005,5.735,29.818,8.949
					c5.131,1.673,7.921,7.194,6.245,12.321c-1.678,5.128-7.195,7.924-12.321,6.244c-9.508-3.111-19.227-6.029-28.891-8.668
					C1255.729,758.927,1254.377,758.162,1253.273,757.158z M1329.282,783.344c-2.972-2.703-4.078-7.085-2.434-11.003
					c2.085-4.974,7.809-7.318,12.784-5.232c9.534,3.996,19.088,8.28,28.402,12.733c4.869,2.325,6.925,8.159,4.598,13.026
					c-2.328,4.867-8.159,6.925-13.025,4.598c-9.026-4.316-18.287-8.466-27.527-12.34
					C1331.023,784.682,1330.085,784.075,1329.282,783.344z M1599.958,1001.845c-0.536-0.488-1.026-1.041-1.455-1.661
					c-5.724-8.24-11.719-16.432-17.822-24.348c-3.293-4.272-2.498-10.406,1.774-13.7c4.271-3.292,10.409-2.503,13.7,1.774
					c6.297,8.17,12.484,16.624,18.391,25.128c3.078,4.43,1.982,10.517-2.449,13.594
					C1608.286,1005.281,1603.251,1004.84,1599.958,1001.845z M1401.273,819.116c-3.328-3.027-4.218-8.061-1.874-12.113
					c2.701-4.668,8.676-6.264,13.347-3.562l3.438,2.008c7.751,4.557,15.536,9.355,23.116,14.254
					c4.543,2.939,5.83,8.975,2.903,13.506c-2.928,4.532-8.974,5.831-13.505,2.903c-7.35-4.749-14.897-9.403-22.433-13.831
					l-3.303-1.929C1402.345,819.993,1401.78,819.577,1401.273,819.116z M1549.882,938.919c-0.23-0.209-0.453-0.43-0.664-0.664
					c-6.737-7.414-13.749-14.754-20.838-21.817c-3.821-3.809-3.833-9.994-0.026-13.816s10.01-3.789,13.813-0.026
					c7.319,7.292,14.555,14.869,21.509,22.52c3.627,3.993,3.332,10.17-0.66,13.798
					C1559.257,942.329,1553.564,942.268,1549.882,938.919z M1468.143,863.799c-3.715-3.379-4.282-9.097-1.175-13.156
					c3.28-4.284,9.411-5.098,13.694-1.818c8.196,6.277,16.355,12.847,24.249,19.532c4.081,3.486,4.627,9.651,1.14,13.767
					c-3.485,4.115-9.651,4.627-13.767,1.14c-7.649-6.478-15.555-12.847-23.499-18.927
					C1468.563,864.165,1468.347,863.985,1468.143,863.799z"/>
				<path style="fill:#FFFFFF;" d="M1634.543,1057.768c-0.78-0.71-1.458-1.558-1.993-2.535c-2.462-4.493-4.977-8.957-7.552-13.391
					c-2.71-4.665-1.125-10.643,3.541-13.351c4.663-2.708,10.644-1.117,13.351,3.541c2.657,4.575,5.255,9.182,7.793,13.817
					c2.592,4.732,0.857,10.668-3.875,13.259C1642.056,1061.164,1637.542,1060.496,1634.543,1057.768z"/>
			</g>
			<g style="opacity:0.64;">
				<path style="fill:#FFFFFF;" d="M1723.6,1538.047c-2.685-2.442-3.897-6.288-2.799-10.002c1.455-4.923,2.846-9.854,4.169-14.796
					c1.398-5.212,6.755-8.303,11.966-6.906c5.209,1.396,8.301,6.754,6.906,11.966c-1.37,5.101-2.804,10.194-4.306,15.275
					c-1.53,5.172-6.962,8.127-12.137,6.598C1725.94,1539.75,1724.656,1539.007,1723.6,1538.047z"/>
				<path style="fill:#FFFFFF;" d="M710.357,1822.483c-3.982-3.623-4.284-9.787-0.669-13.781c3.621-4,9.797-4.306,13.797-0.686
					c7.708,6.978,15.714,13.861,23.799,20.453c4.178,3.385,4.802,9.562,1.393,13.744c-3.41,4.179-9.563,4.803-13.744,1.394
					c-8.34-6.805-16.604-13.906-24.559-21.109C710.369,1822.493,710.363,1822.488,710.357,1822.483z M673.46,1786.145
					c-0.198-0.18-0.392-0.369-0.577-0.568c-7.334-7.857-14.561-16.012-21.482-24.239c-3.472-4.13-2.941-10.291,1.188-13.764
					c4.128-3.469,10.287-2.942,13.764,1.188c6.703,7.972,13.706,15.873,20.811,23.485c3.68,3.943,3.468,10.125-0.476,13.806
					C682.944,1789.548,677.182,1789.531,673.46,1786.145z M775.994,1874.297c-3.554-3.232-4.265-8.671-1.473-12.744
					c3.051-4.448,9.13-5.583,13.58-2.531c8.583,5.886,17.44,11.634,26.328,17.086c4.589,2.828,6.038,8.837,3.218,13.433
					c-2.821,4.598-8.836,6.039-13.434,3.218c-9.169-5.624-18.306-11.555-27.161-17.627
					C776.675,1874.875,776.321,1874.595,775.994,1874.297z M620.663,1721.276c-0.516-0.47-0.99-1.001-1.408-1.596
					c-6.195-8.763-12.251-17.821-18.006-26.921c-2.883-4.559-1.521-10.593,3.038-13.476c4.56-2.88,10.581-1.514,13.476,3.038
					c5.573,8.817,11.443,17.593,17.442,26.083c3.115,4.406,2.068,10.499-2.337,13.613
					C629.057,1724.712,623.978,1724.291,620.663,1721.276z M847.964,1916.913c-3.168-2.882-4.165-7.624-2.139-11.632
					c2.437-4.814,8.312-6.742,13.126-4.308c9.302,4.706,18.839,9.229,28.346,13.441c4.938,2.189,7.159,7.956,4.972,12.889
					c-2.185,4.932-7.957,7.158-12.889,4.972c-9.809-4.348-19.65-9.015-29.247-13.868
					C849.327,1917.998,848.602,1917.493,847.964,1916.913z M924.944,1949.565c-2.804-2.551-3.977-6.62-2.658-10.428
					c1.767-5.098,7.332-7.796,12.428-6.031c9.831,3.408,19.89,6.605,29.894,9.502c5.187,1.505,8.168,6.917,6.666,12.098
					c-1.501,5.183-6.918,8.167-12.098,6.666c-10.328-2.991-20.712-6.291-30.859-9.808
					C927.029,1951.118,925.892,1950.428,924.944,1949.565z M1005.627,1971.531c-2.456-2.234-3.71-5.662-3.011-9.153
					c1.061-5.289,6.208-8.718,11.498-7.658c10.198,2.046,20.577,3.85,30.852,5.364c5.337,0.79,9.027,5.751,8.239,11.087
					c-0.786,5.338-5.75,9.026-11.086,8.239c-10.605-1.562-21.319-3.423-31.844-5.533
					C1008.476,1973.514,1006.891,1972.682,1005.627,1971.531z M1088.479,1982.369c-2.117-1.926-3.373-4.76-3.18-7.839
					c0.336-5.385,4.975-9.475,10.358-9.139c10.358,0.648,20.894,1.035,31.319,1.151c5.396,0.057,9.72,4.483,9.659,9.874
					c-0.058,5.394-4.48,9.72-9.874,9.659c-10.758-0.117-21.634-0.517-32.323-1.187
					C1092.132,1984.743,1090.064,1983.811,1088.479,1982.369z M1172.061,1981.946c-1.788-1.626-2.979-3.918-3.168-6.52
					c-0.389-5.381,3.658-10.057,9.038-10.446c10.366-0.75,20.866-1.781,31.208-3.066c5.357-0.661,10.232,3.143,10.898,8.49
					c0.664,5.354-3.136,10.233-8.491,10.897c-10.673,1.326-21.508,2.39-32.207,3.163
					C1176.561,1984.665,1173.97,1983.683,1172.061,1981.946z M1254.853,1970.323c-1.468-1.335-2.544-3.129-2.982-5.219
					c-1.106-5.28,2.277-10.457,7.559-11.562c10.182-2.132,20.455-4.558,30.534-7.212c5.214-1.372,10.562,1.744,11.933,6.957
					c1.374,5.217-1.742,10.559-6.959,11.934c-10.399,2.737-21,5.241-31.505,7.44
					C1260.244,1973.331,1257.093,1972.361,1254.853,1970.323z M1335.371,1947.743c-1.153-1.049-2.07-2.388-2.628-3.961
					c-1.802-5.084,0.861-10.668,5.946-12.469c9.818-3.479,19.679-7.257,29.309-11.232c4.987-2.058,10.691,0.319,12.756,5.303
					c2.058,4.987-0.317,10.697-5.303,12.756c-9.936,4.099-20.108,7.999-30.24,11.587
					C1341.7,1950.972,1337.947,1950.086,1335.371,1947.743z M1412.161,1914.602c-0.841-0.765-1.563-1.69-2.112-2.762
					c-2.466-4.799-0.575-10.686,4.223-13.151c9.253-4.754,18.521-9.822,27.549-15.064c4.663-2.706,10.647-1.116,13.351,3.544
					c2.707,4.665,1.122,10.643-3.544,13.351c-9.316,5.408-18.88,10.637-28.429,15.543
					C1419.475,1917.979,1415.088,1917.264,1412.161,1914.602z M1483.821,1871.446c-0.529-0.481-1.014-1.029-1.44-1.64
					c-3.09-4.423-2.009-10.513,2.414-13.601c8.549-5.971,17.052-12.246,25.277-18.648c4.252-3.314,10.39-2.562,13.707,1.707
					c3.315,4.255,2.55,10.394-1.706,13.707c-8.487,6.609-17.267,13.086-26.091,19.248
					C1492.169,1874.882,1487.121,1874.447,1483.821,1871.446z M1549.003,1818.992c-0.212-0.192-0.416-0.394-0.612-0.606
					c-3.66-3.963-3.414-10.146,0.549-13.804c7.647-7.06,15.214-14.418,22.488-21.868c3.768-3.858,9.865-3.966,13.814-0.165
					c3.86,3.768,3.934,9.953,0.165,13.813c-7.511,7.69-15.319,15.285-23.211,22.572
					C1558.443,1822.399,1552.709,1822.363,1549.003,1818.992z M1606.437,1758.218c-3.83-3.484-4.287-9.398-0.956-13.437
					c6.607-8.009,13.113-16.324,19.338-24.713c3.216-4.332,9.334-5.238,13.666-2.024c4.344,3.234,5.236,9.333,2.025,13.666
					c-6.424,8.656-13.139,17.237-19.959,25.504c-3.432,4.161-9.588,4.751-13.75,1.318
					C1606.675,1758.43,1606.554,1758.325,1606.437,1758.218z M1655.197,1690.266c-3.418-3.109-4.239-8.308-1.715-12.373
					c2.656-4.277,5.265-8.598,7.83-12.96c2.755-4.684,5.44-9.391,8.054-14.116c2.612-4.721,8.556-6.43,13.276-3.818
					c4.711,2.609,6.428,8.555,3.817,13.277c-2.697,4.873-5.464,9.727-8.305,14.557c-2.643,4.499-5.336,8.956-8.077,13.367
					c-2.845,4.582-8.867,5.989-13.451,3.143C1656.11,1691.024,1655.632,1690.661,1655.197,1690.266z M1694.518,1616.451
					c-3.041-2.766-4.111-7.278-2.333-11.231c4.274-9.507,8.355-19.245,12.131-28.942c1.959-5.026,7.62-7.516,12.648-5.558
					c5.025,1.961,7.513,7.62,5.556,12.646c-3.895,10.007-8.109,20.054-12.518,29.864c-2.211,4.921-7.993,7.115-12.914,4.903
					C1696.123,1617.699,1695.262,1617.128,1694.518,1616.451z"/>
				<path style="fill:#FFFFFF;" d="M576.937,1649.539c-0.83-0.755-1.541-1.665-2.09-2.718c-2.441-4.693-4.823-9.416-7.144-14.165
					c-2.368-4.847-0.36-10.695,4.487-13.064c4.846-2.367,10.701-0.361,13.064,4.487c2.249,4.602,4.556,9.178,6.923,13.727
					c2.49,4.785,0.628,10.684-4.157,13.173C584.288,1652.921,579.878,1652.214,576.937,1649.539z"/>
			</g>
			<g>
				
					<linearGradient id="SVGID_00000046307824698348506780000001858099443563876022_" gradientUnits="userSpaceOnUse" x1="1575.1239" y1="1666.5693" x2="88.4488" y2="648.6673">
					<stop  offset="0" style="stop-color:#4F52FF"/>
					<stop  offset="1" style="stop-color:#4042E2"/>
				</linearGradient>
				<path style="fill:url(#SVGID_00000046307824698348506780000001858099443563876022_);" d="M595.929,1511.688
					c0.77,3.407,3.617,5.953,7.09,6.336l99.076,10.932c20.341,41.87,47.504,80.8,81.107,114.941l-22.824,96.962
					c-0.802,3.402,0.645,6.936,3.598,8.802l101.092,63.839c2.956,1.865,6.768,1.65,9.493-0.533l77.739-62.286
					c45.271,15.665,92.095,23.46,138.643,23.828l52.457,84.759c1.839,2.97,5.36,4.448,8.768,3.678l116.624-26.343
					c3.41-0.771,5.954-3.618,6.336-7.09l10.933-99.075c41.87-20.34,80.799-47.505,114.94-81.108l96.964,22.825
					c3.401,0.801,6.935-0.645,8.801-3.599l63.839-101.094c1.866-2.954,1.652-6.767-0.534-9.493l-62.286-77.738
					c15.667-45.271,23.462-92.094,23.829-138.642l84.76-52.458c2.969-1.838,4.447-5.36,3.677-8.767l-26.343-116.623
					c-0.769-3.41-3.617-5.953-7.09-6.336l-99.076-10.932c-20.338-41.871-47.504-80.799-81.107-114.941l22.825-96.964
					c0.8-3.4-0.644-6.934-3.598-8.801l-101.095-63.839c-2.954-1.866-6.766-1.651-9.493,0.534l-77.738,62.286
					c-45.27-15.668-92.095-23.461-138.644-23.829l-52.456-84.757c-1.837-2.972-5.361-4.449-8.768-3.679l-116.624,26.343
					c-3.407,0.77-5.952,3.616-6.336,7.089l-10.933,99.075c-41.871,20.339-80.799,47.505-114.941,81.108l-96.964-22.826
					c-3.398-0.802-6.935,0.645-8.799,3.6l-63.838,101.091c-1.865,2.954-1.652,6.767,0.532,9.494l62.286,77.739
					c-15.665,45.27-23.459,92.094-23.829,138.642l-84.757,52.458c-2.971,1.839-4.447,5.359-3.679,8.768L595.929,1511.688z"/>
				<path style="fill:#91B3FA;" d="M1017.598,1422.677c-10.187-9.266-18.702-20.405-25.117-33.055
					c-13.866-27.336-16.256-58.434-6.729-87.566c9.522-29.134,29.821-52.815,57.158-66.679
					c27.335-13.866,58.433-16.256,87.568-6.731c60.148,19.653,93.071,84.584,73.41,144.726
					c-19.662,60.14-84.586,93.073-144.726,73.41C1043.507,1441.666,1029.426,1433.436,1017.598,1422.677z M1160.369,1265.435
					c-9.871-8.979-21.744-16.061-35.227-20.471c-24.774-8.098-51.22-6.066-74.466,5.725c-23.245,11.79-40.507,31.928-48.606,56.701
					c-8.099,24.776-6.066,51.22,5.724,74.465c11.794,23.249,31.932,40.507,56.702,48.608
					c51.141,16.719,106.351-11.286,123.072-62.426C1199.877,1330.378,1187.938,1290.512,1160.369,1265.435z"/>
				<path style="fill:#91B3FA;" d="M899.904,1553.309c-0.899-0.818-1.796-1.642-2.685-2.471c-0.013-0.032-0.041-0.043-0.062-0.059
					c-0.433-0.405-0.867-0.811-1.297-1.219c-0.034-0.022-0.029-0.03-0.048-0.044c-0.034-0.034-0.071-0.068-0.104-0.098
					c-1.12-1.061-2.23-2.128-3.331-3.206c-0.123-0.117-0.24-0.235-0.367-0.356c-1.653-1.622-1.716-4.25-0.172-5.951
					c0.037-0.04,0.073-0.081,0.113-0.121c1.66-1.694,4.408-1.691,6.072-0.059c14.337,14.068,30.319,26.695,47.473,37.529l0,0
					c118.205,74.643,270.924,51.085,361.913-48.939c11.005-12.099,21.11-25.317,30.139-39.617
					c83.674-132.499,43.976-308.372-88.556-392.052c-118.205-74.644-270.924-51.086-361.913,48.939
					c-11.007,12.101-21.11,25.317-30.139,39.616c-27.508,43.565-42.676,93.668-43.862,144.895c-0.025,1.074-0.443,2.048-1.113,2.784
					c-0.807,0.89-1.982,1.438-3.28,1.409c-2.369-0.059-4.244-2.022-4.191-4.391c1.221-52.781,16.847-104.403,45.186-149.283
					c9.302-14.731,19.71-28.348,31.05-40.811c93.736-103.045,251.071-127.316,372.847-50.419
					c136.501,86.2,177.43,267.391,91.229,403.897c-9.302,14.731-19.71,28.348-31.048,40.812
					c-93.738,103.044-251.072,127.317-372.849,50.417l0,0C926.329,1575.305,912.575,1564.835,899.904,1553.309z"/>
			</g>
		</g>
		<g>
			<g style="opacity:0.64;">
				<path style="fill:#FFFFFF;" d="M1526.953,2271.279c-8.882-1.908-15.823-9.469-16.527-18.987
					c-0.849-11.401-1.473-22.971-1.861-34.389c-0.395-11.597,8.685-21.317,20.281-21.709c11.594-0.383,21.32,8.69,21.708,20.281
					c0.37,10.861,0.968,21.868,1.769,32.708c0.858,11.57-7.823,21.644-19.394,22.503
					C1530.878,2271.84,1528.87,2271.691,1526.953,2271.279z"/>
				<path style="fill:#FFFFFF;" d="M1553.709,2216.729c-10.266-2.206-17.486-11.789-16.478-22.496
					c2.119-22.581,5.167-45.377,9.057-67.763c1.986-11.433,12.864-19.089,24.293-17.103c11.362,1.846,19.089,12.865,17.103,24.294
					c-3.702,21.309-6.605,43.007-8.625,64.498c-1.084,11.552-11.327,20.04-22.878,18.952
					C1555.339,2217.033,1554.515,2216.902,1553.709,2216.729z M1587.816,2045.212c-0.59-0.127-1.179-0.278-1.769-0.459
					c-11.092-3.399-17.327-15.147-13.927-26.243c6.659-21.735,14.242-43.432,22.527-64.495
					c4.245-10.793,16.421-16.092,27.241-11.858c10.796,4.25,16.108,16.446,11.858,27.242c-7.893,20.055-15.112,40.722-21.457,61.426
					C1609.071,2041.331,1598.362,2047.478,1587.816,2045.212z M1655.759,1884.155c-1.95-0.419-3.868-1.121-5.704-2.128
					c-10.169-5.584-13.888-18.356-8.308-28.526c10.935-19.914,22.786-39.624,35.222-58.573c6.366-9.708,19.397-12.405,29.088-6.038
					c9.703,6.366,12.403,19.389,6.038,29.088c-11.835,18.034-23.113,36.788-33.514,55.742
					C1674.005,1882.052,1664.6,1886.054,1655.759,1884.155z M1755.245,1740.338c-3.305-0.71-6.49-2.234-9.236-4.591
					c-8.811-7.55-9.831-20.813-2.278-29.619c14.764-17.228,30.411-34.094,46.503-50.136c8.228-8.191,21.517-8.164,29.711,0.047
					c8.193,8.219,8.168,21.522-0.046,29.712c-15.321,15.267-30.216,31.325-44.272,47.719
					C1770.435,1739.531,1762.539,1741.905,1755.245,1740.338z M1882.11,1619.932c-4.685-1.007-9.056-3.616-12.213-7.71
					c-7.083-9.189-5.377-22.382,3.812-29.464c18.001-13.877,36.748-27.198,55.724-39.593c9.713-6.353,22.732-3.623,29.075,6.096
					c6.349,9.712,3.619,22.731-6.095,29.074c-18.064,11.803-35.91,24.486-53.052,37.699
					C1894.267,1619.959,1887.943,1621.185,1882.11,1619.932z M2030.778,1527.844c-6.101-1.311-11.553-5.312-14.495-11.353
					c-5.072-10.436-0.73-23.008,9.702-28.082c20.41-9.926,41.462-19.172,62.568-27.476c10.8-4.251,23,1.064,27.241,11.855
					c4.247,10.8-1.06,22.997-11.855,27.241c-20.097,7.907-40.144,16.711-59.574,26.163
					C2039.974,1528.329,2035.207,1528.795,2030.778,1527.844z M2194.94,1467.814c-7.562-1.625-13.938-7.381-15.965-15.388
					c-2.851-11.247,3.956-22.673,15.203-25.523c21.998-5.576,44.481-10.348,66.825-14.184c11.448-1.947,22.299,5.723,24.261,17.153
					c1.963,11.434-5.718,22.298-17.152,24.261c-21.273,3.651-42.675,8.193-63.615,13.497
					C2201.257,1468.454,2198,1468.472,2194.94,1467.814z M2921.655,1616.616c-2.933-0.63-5.774-1.899-8.316-3.838
					c-17.159-13.092-35.075-25.675-53.245-37.401c-9.749-6.287-12.554-19.292-6.263-29.04c6.282-9.746,19.283-12.577,29.04-6.263
					c19.096,12.321,37.923,25.543,55.951,39.3c9.227,7.04,10.998,20.221,3.96,29.444
					C2937.682,1615.502,2929.36,1618.271,2921.655,1616.616z M2367.87,1442.505c-9.131-1.962-16.148-9.891-16.559-19.657
					c-0.49-11.591,8.515-21.386,20.106-21.872c22.653-0.954,45.648-1.016,68.351-0.188c11.549,0.433,20.647,10.165,20.228,21.763
					c-0.426,11.592-10.166,20.65-21.763,20.227c-21.608-0.789-43.493-0.732-65.049,0.176
					C2371.358,1443.031,2369.579,1442.872,2367.87,1442.505z M2772.441,1525.463c-1.569-0.337-3.127-0.861-4.641-1.585
					c-19.514-9.3-39.632-17.945-59.797-25.698c-10.832-4.161-16.236-16.318-12.071-27.145c4.159-10.823,16.346-16.191,27.144-12.071
					c21.178,8.139,42.31,17.22,62.802,26.99c10.472,4.991,14.918,17.529,9.923,28.001
					C2791.535,1522.913,2781.74,1527.461,2772.441,1525.463z M2542.363,1453.19c-10.899-2.342-18.137-12.857-16.295-23.972
					c1.897-11.444,12.712-19.184,24.161-17.286c22.382,3.709,44.758,8.324,66.929,13.775c11.268,2.774,18.152,14.157,15.379,25.422
					c-2.774,11.268-14.062,18.118-25.422,15.379c-21.129-5.203-42.446-9.59-63.761-13.129
					C2543.022,1453.324,2542.692,1453.261,2542.363,1453.19z"/>
				<path style="fill:#FFFFFF;" d="M3001.863,1624.842c-4.043-0.869-7.875-2.938-10.916-6.19
					c-7.48-8.003-15.161-15.906-22.835-23.494c-8.248-8.159-8.324-21.459-0.167-29.711c8.157-8.253,21.46-8.328,29.711-0.168
					c8.061,7.973,16.135,16.279,23.99,24.681c7.92,8.475,7.472,21.771-1.004,29.695
					C3015.417,1624.54,3008.362,1626.239,3001.863,1624.842z"/>
			</g>
			<g style="opacity:0.64;">
				<path style="fill:#FFFFFF;" d="M3246.691,2308.165c-9.897-2.126-17.077-11.173-16.543-21.609
					c0.554-10.901,0.899-21.92,1.019-32.751c0.134-11.6,9.644-20.901,21.245-20.771c11.625,0.139,20.894,9.638,20.771,21.245
					c-0.13,11.384-0.489,22.96-1.074,34.418c-0.589,11.586-10.461,20.503-22.052,19.91
					C3248.908,2308.548,3247.782,2308.399,3246.691,2308.165z"/>
				<path style="fill:#FFFFFF;" d="M2208.391,3098.652c-0.06-0.013-0.116-0.025-0.172-0.037
					c-17.456-3.901-35.02-8.392-52.209-13.353c-4.288-1.236-8.578-2.506-12.847-3.81c-11.097-3.392-17.341-15.137-13.955-26.231
					c3.392-11.098,15.136-17.358,26.232-13.954c4.056,1.241,8.123,2.447,12.206,3.621c16.383,4.729,33.112,9.007,49.735,12.721
					c11.325,2.531,18.45,13.764,15.921,25.085C2230.786,3093.958,2219.656,3101.072,2208.391,3098.652z M2313.649,3115.391
					c-10.281-2.209-17.501-11.813-16.474-22.533c1.106-11.551,11.36-20.016,22.911-18.911c21.138,2.02,42.635,3.24,63.889,3.622
					c11.594,0.187,20.834,9.78,20.63,21.378c-0.206,11.602-9.782,20.838-21.379,20.629c-22.341-0.402-44.93-1.68-67.14-3.807
					C2315.256,3115.691,2314.444,3115.562,2313.649,3115.391z M2045.018,3044.59c-1.404-0.302-2.801-0.753-4.168-1.361
					c-20.435-9.12-40.735-19.135-60.344-29.774c-10.197-5.531-13.979-18.284-8.447-28.485c5.531-10.193,18.26-13.984,28.485-8.447
					c18.658,10.123,37.98,19.655,57.431,28.333c10.592,4.731,15.351,17.152,10.624,27.749
					C2064.479,3041.834,2054.521,3046.632,2045.018,3044.59z M2485.686,3114.303c-8.617-1.851-15.466-9.039-16.47-18.277
					c-1.248-11.537,7.089-21.899,18.622-23.152c21.123-2.286,42.41-5.434,63.278-9.349c11.415-2.126,22.381,5.372,24.522,16.776
					c2.137,11.405-5.371,22.382-16.777,24.522c-21.929,4.109-44.299,7.416-66.493,9.823
					C2490.075,3114.893,2487.824,3114.762,2485.686,3114.303z M1895.756,2958.902c-2.74-0.589-5.406-1.737-7.827-3.478
					c-18.12-13.012-35.982-26.918-53.084-41.332c-8.873-7.479-10.004-20.732-2.529-29.602c7.475-8.873,20.723-10.001,29.602-2.529
					c16.278,13.717,33.276,26.954,50.516,39.337c9.424,6.767,11.577,19.891,4.81,29.315
					C1912.219,2957.617,1903.679,2960.604,1895.756,2958.902z M2653.891,3078.582c-7.113-1.528-13.23-6.708-15.61-14.131
					c-3.544-11.048,2.54-22.876,13.587-26.42c20.216-6.484,40.459-13.84,60.167-21.869c10.741-4.382,23.005,0.788,27.379,11.532
					c4.377,10.744-0.784,23.002-11.532,27.378c-20.691,8.43-41.951,16.159-63.181,22.967
					C2661.073,3079.201,2657.365,3079.328,2653.891,3078.582z M2811.59,3009.878c-5.688-1.222-10.844-4.785-13.916-10.259
					c-5.678-10.121-2.079-22.924,8.038-28.603c18.563-10.415,36.937-21.667,54.613-33.444c9.654-6.433,22.706-3.814,29.131,5.839
					c6.432,9.654,3.819,22.698-5.839,29.13c-18.558,12.363-37.85,24.179-57.34,35.116
					C2821.629,3010.264,2816.42,3010.916,2811.59,3009.878z M2952.437,2911.081c-4.313-0.927-8.37-3.213-11.472-6.809
					c-7.585-8.781-6.611-22.048,2.173-29.628c16.101-13.899,31.858-28.597,46.83-43.687c8.181-8.23,21.49-8.279,29.712-0.112
					c8.236,8.174,8.282,21.475,0.112,29.712c-15.736,15.849-32.285,31.291-49.199,45.888
					C2965.409,2910.926,2958.655,2912.417,2952.437,2911.081z M3070.69,2786.026c-2.96-0.636-5.827-1.923-8.384-3.891
					c-9.194-7.079-10.908-20.273-3.835-29.463c12.982-16.86,25.457-34.433,37.078-52.232c6.341-9.721,19.365-12.446,29.073-6.104
					c9.717,6.343,12.448,19.356,6.104,29.073c-12.21,18.704-25.32,37.174-38.959,54.892
					C3086.657,2784.938,3078.368,2787.676,3070.69,2786.026z M3161.3,2639.735c-1.625-0.349-3.232-0.896-4.79-1.655
					c-10.434-5.074-14.779-17.646-9.704-28.08c9.277-19.078,17.945-38.796,25.764-58.599c4.257-10.79,16.467-16.107,27.252-11.83
					c10.794,4.258,16.087,16.462,11.83,27.252c-8.208,20.802-17.313,41.513-27.062,61.552
					C3180.274,2637.252,3170.534,2641.719,3161.3,2639.735z M3220.644,2478.261c-0.284-0.061-0.568-0.126-0.851-0.2
					c-11.237-2.901-17.991-14.357-15.095-25.591c2.857-11.069,5.527-22.364,7.935-33.573c2.076-9.663,3.978-19.336,5.698-29.001
					c2.035-11.422,12.945-19.033,24.365-17.004c11.553,1.992,19.038,12.941,17.004,24.365c-1.81,10.158-3.807,20.313-5.988,30.466
					c-2.528,11.766-5.332,23.624-8.327,35.243C3242.557,2473.917,3231.6,2480.615,3220.644,2478.261z"/>
				<path style="fill:#FFFFFF;" d="M1766.503,2844.444c-4.096-0.88-7.97-2.989-11.022-6.301
					c-7.749-8.413-15.426-17.079-22.818-25.769c-7.519-8.834-6.454-22.094,2.384-29.612c8.839-7.522,22.099-6.457,29.612,2.384
					c7.037,8.269,14.345,16.521,21.724,24.527c7.861,8.534,7.318,21.825-1.216,29.687
					C1779.946,2844.167,1772.95,2845.829,1766.503,2844.444z"/>
			</g>
			<g>
				
					<linearGradient id="SVGID_00000119829620629799556900000004019162234623337883_" gradientUnits="userSpaceOnUse" x1="1926.7158" y1="1679.4425" x2="3011.5864" y2="2951.8196">
					<stop  offset="0" style="stop-color:#4F52FF"/>
					<stop  offset="1" style="stop-color:#4042E2"/>
				</linearGradient>
				<path style="fill:url(#SVGID_00000119829620629799556900000004019162234623337883_);" d="M1806.022,2707.518
					c2.468,4.387,7.449,6.727,12.402,5.824l141.298-25.763c45.349,49.419,98.906,91.967,159.38,125.246l8.473,143.284
					c0.295,5.028,3.75,9.31,8.597,10.668l165.899,46.451c4.85,1.356,10.024-0.512,12.888-4.651l81.645-118.053
					c68.964,2.959,136.824-5.588,201.244-24.276l107.378,95.389c3.764,3.343,9.235,3.931,13.622,1.463l150.154-84.463
					c4.39-2.47,6.728-7.451,5.824-12.402l-25.762-141.298c49.421-45.349,91.966-98.907,125.245-159.382l143.287-8.473
					c5.025-0.297,9.309-3.749,10.666-8.596l46.452-165.902c1.357-4.848-0.511-10.024-4.653-12.886l-118.054-81.645
					c2.962-68.964-5.585-136.825-24.274-201.243l95.391-107.38c3.341-3.762,3.93-9.234,1.462-13.62l-84.464-150.154
					c-2.467-4.39-7.449-6.727-12.402-5.824l-141.298,25.763c-45.348-49.422-98.906-91.967-159.381-125.246l-8.472-143.287
					c-0.297-5.024-3.749-9.309-8.596-10.667l-165.902-46.45c-4.847-1.358-10.022,0.51-12.886,4.652l-81.645,118.054
					c-68.963-2.963-136.826,5.586-201.246,24.275l-107.376-95.388c-3.762-3.345-9.236-3.931-13.623-1.463l-150.153,84.464
					c-4.387,2.469-6.726,7.448-5.825,12.401l25.762,141.297c-49.422,45.349-91.965,98.909-125.245,159.382l-143.287,8.472
					c-5.022,0.295-9.308,3.749-10.664,8.599l-46.45,165.897c-1.357,4.849,0.51,10.024,4.649,12.89l118.054,81.644
					c-2.959,68.963,5.589,136.824,24.274,201.244l-95.387,107.378c-3.345,3.764-3.931,9.232-1.465,13.624L1806.022,2707.518z"/>
				<path style="fill:#91B3FA;" d="M2391.79,2440.901c-87.406-15.188-153.018-92.719-150.669-183.996
					c1.25-48.601,21.355-93.807,56.604-127.286c35.249-33.48,81.43-51.232,130.026-49.978
					c100.37,2.576,179.853,86.302,177.27,186.627c-1.251,48.601-21.355,93.806-56.604,127.286
					c-35.249,33.48-81.43,51.232-130.027,49.977l0,0C2409.34,2443.303,2400.455,2442.406,2391.79,2440.901z M2444.556,2139.5
					c-5.997-1.042-12.103-1.652-18.296-1.812c-68.317-1.76-125.332,52.39-127.092,120.708
					c-0.849,33.097,11.238,64.542,34.038,88.545c22.803,24.012,53.604,37.69,86.675,38.544l0,0
					c33.098,0.849,64.543-11.238,88.544-34.033c24.006-22.799,37.696-53.583,38.549-86.674
					c0.848-33.097-11.238-64.542-34.038-88.545C2494.403,2156.719,2470.592,2144.024,2444.556,2139.5z"/>
				<path style="fill:#91B3FA;" d="M2353.584,2678.716c-14.075-2.446-28.125-5.616-42.171-9.549l-0.005-0.001
					c-25.741-7.212-50.757-16.805-74.506-28.558c-2.707-1.344-5.401-2.709-8.074-4.108c-0.524-0.269-1.042-0.541-1.56-0.818
					c-3.805-2.004-5.721-6.189-5.028-10.208c0.17-0.978,0.496-1.942,0.982-2.865c2.491-4.723,8.35-6.535,13.073-4.046
					c25.374,13.384,52.404,24.138,80.338,31.961c2.301,0.645,4.604,1.271,6.907,1.872
					c156.209,40.875,315.988-15.592,413.944-132.307c35.368-42.141,62.672-92.144,78.814-148.274
					c0.268-0.932,0.536-1.873,0.795-2.807c3.762-13.424,6.795-26.879,9.128-40.331c35.168-202.58-88.473-403.526-290.643-460.135
					c-215.605-60.358-440.101,65.93-500.465,281.514c-3.724,13.292-6.757,26.718-9.1,40.23c-10.159,58.55-7.398,118.68,8.3,176.045
					c0.386,1.42,0.439,2.853,0.198,4.212c-0.622,3.581-3.243,6.655-6.98,7.68c-5.165,1.404-10.476-1.624-11.892-6.781
					c-16.448-60.114-19.343-123.115-8.699-184.456c2.454-14.154,5.633-28.222,9.53-42.145
					c63.246-225.876,298.512-358.169,524.325-294.943c211.811,59.31,341.342,269.836,304.505,482.079
					c-2.448,14.089-5.626,28.186-9.562,42.246C2776.426,2586.049,2565.834,2715.597,2353.584,2678.716z"/>
			</g>
		</g>
		<g>
			<g>
				
					<linearGradient id="SVGID_00000129895162408681073550000002697207326150153136_" gradientUnits="userSpaceOnUse" x1="1785.2257" y1="11.1982" x2="1229.3966" y2="734.447" gradientTransform="matrix(0.9998 -0.0189 0.0189 0.9998 1103.796 -2.4894)">
					<stop  offset="0" style="stop-color:#FF928E"/>
					<stop  offset="1" style="stop-color:#FE7062"/>
				</linearGradient>
				<path style="fill:url(#SVGID_00000129895162408681073550000002697207326150153136_);" d="M1534.144,2068.481
					c-109.592,19.192-182.591-51.434-236.798-94.089c-71.569-56.317-125.887-27.235-125.887-27.235l77.975,147.463
					c114.321,107.719,228.947,81.155,300.83,44.19C1550.837,2110.032,1542.979,2086.106,1534.144,2068.481z"/>
				
					<linearGradient id="SVGID_00000142166531164447692260000007989356205451964060_" gradientUnits="userSpaceOnUse" x1="661.2083" y1="1812.5338" x2="145.8262" y2="2471.9199" gradientTransform="matrix(0.9998 -0.0189 0.0189 0.9998 1103.796 -2.4894)">
					<stop  offset="0" style="stop-color:#FEBBBA"/>
					<stop  offset="1" style="stop-color:#FF928E"/>
				</linearGradient>
				<path style="fill:url(#SVGID_00000142166531164447692260000007989356205451964060_);" d="M1687.344,1997.506l-36.066,21.045
					c-43.193,28.449-82.035,43.784-117.134,49.93c8.835,17.625,16.693,41.551,16.12,70.328
					c45.758-23.529,74.201-51.271,74.201-51.271C1706.073,2034.878,1687.344,1997.506,1687.344,1997.506z"/>
			</g>
			<g>
				
					<linearGradient id="SVGID_00000003827665212788392170000012472350508446574269_" gradientUnits="userSpaceOnUse" x1="9321.3008" y1="9288.0352" x2="7004.2271" y2="7647.334" gradientTransform="matrix(-0.4243 0.9055 0.9055 0.4243 -1100.9617 493.1536)">
					<stop  offset="0" style="stop-color:#4F52FF"/>
					<stop  offset="1" style="stop-color:#4042E2"/>
				</linearGradient>
				<path style="fill:url(#SVGID_00000003827665212788392170000012472350508446574269_);" d="M1276.768,3025.992l-8.113,42.035
					c-13.921,72.132,14.219,138.214,62.855,147.6l57.82,11.159c48.636,9.386,99.347-41.478,113.267-113.61l8.113-42.035
					c0.537-2.782,1.015-5.579,1.431-8.381l186.702-1256.574l-125.97-24.311L1278.558,3017.68
					C1277.903,3020.436,1277.305,3023.209,1276.768,3025.992z M1335.949,3033.987c10.48-54.306,45.136-93.282,77.404-87.055
					c32.269,6.228,49.932,55.301,39.451,109.608c-10.481,54.306-45.137,93.282-77.406,87.054
					C1343.13,3137.367,1325.468,3088.294,1335.949,3033.987z"/>
				
					<linearGradient id="SVGID_00000158016205945721514300000004188409458492874681_" gradientUnits="userSpaceOnUse" x1="21294.6191" y1="11733.0508" x2="18977.5449" y2="10092.3496" gradientTransform="matrix(-0.9819 -0.1895 -0.1895 0.9819 2279.5713 4296.8794)">
					<stop  offset="0" style="stop-color:#4F52FF"/>
					<stop  offset="1" style="stop-color:#4042E2"/>
				</linearGradient>
				<path style="fill:url(#SVGID_00000158016205945721514300000004188409458492874681_);" d="M1591.551,1343.745l-47.073,243.907
					c-3.352,17.366,1.547,35.304,13.261,48.557l60.043,67.931c17.138,19.39,45.188,24.803,68.311,13.184l81.008-40.709
					c15.803-7.942,27.026-22.768,30.377-40.135l47.073-243.906c7.1-36.789,54.529-48.648,77.416-18.982
					c54.752,70.97,79.885,165.886,61.156,262.932c-33.853,175.404-193.91,269.669-362.626,237.108
					c-168.715-32.561-282.199-179.62-248.347-355.023c18.729-97.046,77.378-175.794,154.608-221.292
					C1559.042,1278.299,1598.651,1306.955,1591.551,1343.745z"/>
				<path style="fill:#91B3FA;" d="M1614.537,1348.182l-47.073,243.907c-3.351,17.366,1.547,35.304,13.261,48.556l60.044,67.932
					c17.139,19.39,45.187,24.803,68.31,13.183l81.009-40.709c15.804-7.941,27.026-22.768,30.378-40.134l47.073-243.907
					c7.1-36.79,54.528-48.648,77.416-18.983c54.752,70.97,79.885,165.887,61.155,262.933
					c-33.852,175.404-193.91,269.669-362.625,237.109c-168.715-32.562-282.199-179.62-248.347-355.024
					c18.73-97.046,77.379-175.793,154.609-221.291C1582.029,1282.735,1621.638,1311.391,1614.537,1348.182z"/>
				<path style="fill:#91B3FA;" d="M1295.104,3029.531l-8.113,42.036c-13.921,72.132,14.22,138.214,62.855,147.601l57.82,11.159
					c48.636,9.386,99.347-41.478,113.267-113.61l8.113-42.036c0.537-2.782,1.015-5.579,1.431-8.381l186.702-1256.573l-125.97-24.311
					l-294.316,1235.804C1296.24,3023.975,1295.641,3026.748,1295.104,3029.531z M1354.285,3037.526
					c10.48-54.307,45.135-93.283,77.404-87.055c32.268,6.228,49.932,55.301,39.451,109.608
					c-10.482,54.306-45.137,93.282-77.406,87.054C1361.466,3140.905,1343.804,3091.833,1354.285,3037.526z"/>
			</g>
			
				<linearGradient id="SVGID_00000008143148986219626410000001325606675485326745_" gradientUnits="userSpaceOnUse" x1="215.9354" y1="3071.011" x2="435.2293" y2="3652.1409" gradientTransform="matrix(-0.4243 0.9055 0.9055 0.4243 -1100.9617 493.1536)">
				<stop  offset="0" style="stop-color:#FEBBBA"/>
				<stop  offset="1" style="stop-color:#FF928E"/>
			</linearGradient>
			<path style="fill:url(#SVGID_00000008143148986219626410000001325606675485326745_);" d="M1692.046,2051.904
				c1.342-7.879-0.963-15.878-6.19-21.925c-10.129-11.717-27.63-27.772-40.323-16.951c-18.904,16.116,1.811,71.232,1.811,71.232
				l20.959,32.008l0.295,20.429C1679.936,2123.42,1686.717,2090.758,1692.046,2051.904z"/>
			
				<linearGradient id="SVGID_00000008134036251063207270000007985290762994046119_" gradientUnits="userSpaceOnUse" x1="536.7467" y1="2396.3618" x2="693.3124" y2="2396.3618" gradientTransform="matrix(0.9998 -0.0189 0.0189 0.9998 336.1642 12.0052)">
				<stop  offset="0" style="stop-color:#FEBBBA"/>
				<stop  offset="1" style="stop-color:#FF928E"/>
			</linearGradient>
			<path style="fill:url(#SVGID_00000008134036251063207270000007985290762994046119_);" d="M972.912,2316.001
				c-15.735,17.443-39.1,32.702-55.564,42.252c25.428,30.245,59.631,60.368,104.711,89.633l13.279,28.346l39.892-49.689
				C1075.23,2426.543,1001.304,2391.479,972.912,2316.001z"/>
			
				<linearGradient id="SVGID_00000132787485678103784280000014755892274642462115_" gradientUnits="userSpaceOnUse" x1="749.694" y1="2887.1409" x2="753.621" y2="3319.0747" gradientTransform="matrix(0.9998 -0.0189 0.0189 0.9998 336.1642 12.0052)">
				<stop  offset="0" style="stop-color:#09005D"/>
				<stop  offset="1" style="stop-color:#1A0F91"/>
			</linearGradient>
			<path style="fill:url(#SVGID_00000132787485678103784280000014755892274642462115_);" d="M1208.861,3239.693
				c-0.002-0.874-0.077-1.759-0.318-2.647c-14.211-52.162-80.442-83.569-80.442-83.569l-25.963,2.529
				c-14.078,46.478-11.621,74.774-8.983,87.348c0.073,0.353,0.187,0.687,0.287,1.027
				C1114.928,3245.892,1159.098,3246.31,1208.861,3239.693z"/>
			
				<linearGradient id="SVGID_00000174601078907814565080000014887746986953425583_" gradientUnits="userSpaceOnUse" x1="756.7564" y1="3071.626" x2="765.1271" y2="2579.4185" gradientTransform="matrix(0.9998 -0.0189 0.0189 0.9998 336.1642 12.0052)">
				<stop  offset="0" style="stop-color:#09005D"/>
				<stop  offset="1" style="stop-color:#1A0F91"/>
			</linearGradient>
			<path style="fill:url(#SVGID_00000174601078907814565080000014887746986953425583_);" d="M1093.443,3244.381
				c1.237,4.192,4.41,7.415,8.408,8.177c30.632,5.84,79.028-0.239,99.338-3.286c4.482-0.672,7.686-4.888,7.672-9.58
				C1159.098,3246.31,1114.928,3245.892,1093.443,3244.381z"/>
			
				<linearGradient id="SVGID_00000124150586022247968830000017790997353053033639_" gradientUnits="userSpaceOnUse" x1="726.8044" y1="3068.2134" x2="704.3785" y2="3263.9314" gradientTransform="matrix(0.9998 -0.0189 0.0189 0.9998 336.1642 12.0052)">
				<stop  offset="0" style="stop-color:#FEBBBA"/>
				<stop  offset="1" style="stop-color:#FF928E"/>
			</linearGradient>
			<path style="fill:url(#SVGID_00000124150586022247968830000017790997353053033639_);" d="M1090.951,3117.476l12.014,52.806
				c0.88,3.868,3.921,6.721,7.542,6.993c4.434,0.332,10.738,0.456,17.056-0.594c5.666-0.942,9.512-6.79,8.388-12.967l-8.543-46.926
				L1090.951,3117.476z"/>
			
				<linearGradient id="SVGID_00000168087851422164066080000000257876326460360093_" gradientUnits="userSpaceOnUse" x1="960.6189" y1="3075.092" x2="968.9896" y2="2582.8816" gradientTransform="matrix(0.9998 -0.0189 0.0189 0.9998 336.1642 12.0052)">
				<stop  offset="0" style="stop-color:#09005D"/>
				<stop  offset="1" style="stop-color:#1A0F91"/>
			</linearGradient>
			<path style="fill:url(#SVGID_00000168087851422164066080000000257876326460360093_);" d="M1321.505,3239.542
				c-28.731-0.262-43.648-3.363-51.385-6.357c0.035,2.856,0.106,5.762,0.256,8.771c0.159,3.213,2.59,5.737,5.52,5.663l157.651-3.995
				c5.031-0.128,7.861-6.019,5.594-10.591C1418.499,3235.131,1365.919,3239.947,1321.505,3239.542z"/>
			
				<linearGradient id="SVGID_00000096040912039938822480000017235175083424476042_" gradientUnits="userSpaceOnUse" x1="954.2006" y1="2885.2827" x2="958.1277" y2="3317.2202" gradientTransform="matrix(0.9998 -0.0189 0.0189 0.9998 336.1642 12.0052)">
				<stop  offset="0" style="stop-color:#09005D"/>
				<stop  offset="1" style="stop-color:#1A0F91"/>
			</linearGradient>
			<path style="fill:url(#SVGID_00000096040912039938822480000017235175083424476042_);" d="M1439.14,3233.033
				c-0.198-0.398-0.369-0.804-0.647-1.177c-14.291-19.194-50.488-57.267-120.885-72.747l-33.639-0.427
				c0,0-14.478,26.302-13.85,74.503c7.737,2.994,22.654,6.095,51.385,6.357C1365.919,3239.947,1418.499,3235.131,1439.14,3233.033z"
				/>
			
				<linearGradient id="SVGID_00000088840778221078008660000011843834454132916876_" gradientUnits="userSpaceOnUse" x1="909.4784" y1="3089.1499" x2="887.0529" y2="3284.8645" gradientTransform="matrix(0.9998 -0.0189 0.0189 0.9998 336.1642 12.0052)">
				<stop  offset="0" style="stop-color:#FEBBBA"/>
				<stop  offset="1" style="stop-color:#FF928E"/>
			</linearGradient>
			<path style="fill:url(#SVGID_00000088840778221078008660000011843834454132916876_);" d="M1276.775,3107.85
				c0.42,2.499,5.748,40.499,7.81,55.232c0.49,3.5,3.083,6.169,6.295,6.491c5.738,0.576,15.013,1.024,23.086-0.791
				c4.355-0.98,7.44-5.239,7.348-10.123l-1.129-59.785L1276.775,3107.85z"/>
			
				<linearGradient id="SVGID_00000044874046060020882630000003244699070635240874_" gradientUnits="userSpaceOnUse" x1="1175.9453" y1="2194.1699" x2="458.6848" y2="3307.1616" gradientTransform="matrix(0.9998 -0.0189 0.0189 0.9998 336.1642 12.0052)">
				<stop  offset="0" style="stop-color:#09005D"/>
				<stop  offset="1" style="stop-color:#1A0F91"/>
			</linearGradient>
			<path style="fill:url(#SVGID_00000044874046060020882630000003244699070635240874_);" d="M1236.679,2413.299
				c0,0,86.904,306.626,92.76,694.438c0.106,7.071-4.742,13.265-11.633,14.854c-10.154,2.339-25.093,5.172-37.506,5.058
				c-6.627-0.061-12.256-4.867-13.494-11.378c-12.628-66.461-84.968-440.843-123.294-501.121c0,0-18.142,335-7.047,508.414
				c0.275,4.313-2.814,8.115-7.096,8.692c-6.495,0.876-16.898,1.643-30.179,0.486c-5.041-0.439-9.172-4.166-9.985-9.16
				c-9.164-56.277-62.118-391.282-64.706-633.279c-0.146-13.647,34.707-73.654,34.707-73.654L1236.679,2413.299z"/>
			
				<linearGradient id="SVGID_00000164510548146076898070000012705500798294622101_" gradientUnits="userSpaceOnUse" x1="1693.5898" y1="-59.2231" x2="1137.7601" y2="664.0263" gradientTransform="matrix(0.9998 -0.0189 0.0189 0.9998 1103.796 -2.4894)">
				<stop  offset="0" style="stop-color:#FF928E"/>
				<stop  offset="1" style="stop-color:#FE7062"/>
			</linearGradient>
			<path style="fill:url(#SVGID_00000164510548146076898070000012705500798294622101_);" d="M1342.408,2038.224
				c-13.472-16.247-25.334-33.712-35.323-51.749c-13.949-25.193-0.772,16.494-4.994-12.172
				c-102.237-70.88-253.422-31.172-312.031-22.662c-19.218,2.791-36.656,12.62-49.073,27.551
				c-49.243,59.209-156.699,220.796-23.639,379.062c16.464-9.55,39.829-24.809,55.564-42.252
				c-15.151-40.28-17.307-92.079,11.64-156.194c1.125,5.018,2.493,9.98,4.133,14.858c44.037,130.854,48.323,240.357,48.707,265.605
				c0.051,3.428,2.169,6.476,5.376,7.692c55.101,20.881,160.124,5.85,195.362-0.083c6.461-1.088,10.706-7.203,9.688-13.675
				c-19.716-125.32,65.389-333.696,87.92-385.911C1337.359,2044.539,1339.634,2041.142,1342.408,2038.224z"/>
			
				<linearGradient id="SVGID_00000053521475316425859210000016179594519828097665_" gradientUnits="userSpaceOnUse" x1="776.374" y1="1817.0565" x2="690.7487" y2="2187.0798" gradientTransform="matrix(0.9998 -0.0189 0.0189 0.9998 336.1642 12.0052)">
				<stop  offset="0" style="stop-color:#FEBBBA"/>
				<stop  offset="1" style="stop-color:#FF928E"/>
			</linearGradient>
			<path style="fill:url(#SVGID_00000053521475316425859210000016179594519828097665_);" d="M1082.583,1844.055l-8.506,107.881
				c0,0,60.922,17.102,104.393-14.818l-32.82-97.282L1082.583,1844.055z"/>
			<g>
				
					<linearGradient id="SVGID_00000127012134144471666680000002153621933808720793_" gradientUnits="userSpaceOnUse" x1="-713.9683" y1="-136.2418" x2="-865.8802" y2="64.7254" gradientTransform="matrix(0.6715 -0.7409 0.7409 0.6715 1711.5582 1305.1805)">
					<stop  offset="0" style="stop-color:#FEBBBA"/>
					<stop  offset="1" style="stop-color:#FF928E"/>
				</linearGradient>
				<path style="fill:url(#SVGID_00000127012134144471666680000002153621933808720793_);" d="M1150.556,1719.996
					c1.484,1.345,63.784,118.181,63.784,118.181l-67.467,34.155l-75.5-101.963
					C1071.373,1770.368,1125.714,1697.481,1150.556,1719.996z"/>
				
					<linearGradient id="SVGID_00000057835957254018670650000010622438681220220305_" gradientUnits="userSpaceOnUse" x1="-829.9852" y1="-87.9798" x2="-648.5237" y2="-87.9798" gradientTransform="matrix(0.6715 -0.7409 0.7409 0.6715 1711.5582 1305.1805)">
					<stop  offset="0" style="stop-color:#09005D"/>
					<stop  offset="1" style="stop-color:#1A0F91"/>
				</linearGradient>
				<path style="fill:url(#SVGID_00000057835957254018670650000010622438681220220305_);" d="M1101.552,1772.661
					c-1.155,3.165-0.79,6.667,0.998,9.523l35.027,55.968c0.532,0.849,1.16,1.613,1.906,2.282
					c4.113,3.687,18.151,14.369,28.563-0.734c8.874-12.871,17.206-24.578,26.279-29.513c5.297-2.882,11.924-0.786,14.742,4.547
					c5.804,10.984,17.068,33.384,24.282,54.69c1.807,5.341-0.857,11.161-6.041,13.376c-13.681,5.847-40.739,16.462-64.856,20.256
					c-3.961,0.624-7.926-0.978-10.351-4.172c-10.671-14.055-40.744-53.328-50.94-63.108c-9.472-9.086-26.565-5.27-34.255-2.902
					c-2.919,0.9-6.052,0.552-8.698-0.974c-7.934-4.577-21.846-16.085-9.699-36.242c3.02-5.012,1.309-11.58-3.641-14.702
					c-8.867-5.596-18.575-16.231-9.851-33.915c8.832-17.901,25.171-19.802,36.344-18.65c4.944,0.51,9.903-2.172,11.709-6.802
					c0.803-2.06,2.434-3.833,5.521-4.52c5.821-1.296,9.555-6.712,8.298-12.541c-2.155-9.996-0.921-23.056,14.931-32.166
					c29.073-16.707,55.303,9.126,62.266,31.219c6.964,22.094-25.586,38.416-46.199,41.426
					C1112.746,1747.219,1104.737,1763.94,1101.552,1772.661z"/>
				
					<linearGradient id="SVGID_00000167357188690536570890000013120478181662554007_" gradientUnits="userSpaceOnUse" x1="-925.187" y1="11.342" x2="-803.342" y2="-113.6677" gradientTransform="matrix(0.6715 -0.7409 0.7409 0.6715 1711.5582 1305.1805)">
					<stop  offset="0" style="stop-color:#FEBBBA"/>
					<stop  offset="1" style="stop-color:#FF928E"/>
				</linearGradient>
				<path style="fill:url(#SVGID_00000167357188690536570890000013120478181662554007_);" d="M1114.307,1856.324
					c0,0-13.785-37.977-30.48-36.258c-16.695,1.718-29.542,18.625-8.465,36.96
					C1101.58,1879.833,1114.307,1856.324,1114.307,1856.324z"/>
			</g>
			
				<linearGradient id="SVGID_00000051376252320875157680000004750197411170331801_" gradientUnits="userSpaceOnUse" x1="1264.4232" y1="2031.5652" x2="722.0147" y2="2126.9888">
				<stop  offset="0" style="stop-color:#E1473D"/>
				<stop  offset="1" style="stop-color:#E9605A"/>
			</linearGradient>
			<path style="fill:url(#SVGID_00000051376252320875157680000004750197411170331801_);" d="M978.852,2150.067
				c-23.18-59.904-16.559-132.893-16.489-133.623l6.086,0.579c-0.067,0.717-6.544,72.306,16.108,130.837L978.852,2150.067z"/>
			
				<linearGradient id="SVGID_00000132067170736285021020000012619000572951591577_" gradientUnits="userSpaceOnUse" x1="773.6954" y1="2493.0173" x2="713.5494" y2="2600.0571" gradientTransform="matrix(0.9998 -0.0189 0.0189 0.9998 336.1642 12.0052)">
				<stop  offset="0" style="stop-color:#4F52FF"/>
				<stop  offset="1" style="stop-color:#4042E2"/>
			</linearGradient>
			<path style="fill:url(#SVGID_00000132067170736285021020000012619000572951591577_);" d="M1140.384,2607.352
				c-1.358,0.025-2.618-0.863-3-2.234c-7.214-25.808-58.104-53.357-58.617-53.633c-1.488-0.797-2.049-2.651-1.249-4.14
				c0.799-1.488,2.643-2.05,4.14-1.249c2.187,1.173,53.703,29.063,61.615,57.376c0.455,1.627-0.496,3.314-2.121,3.768
				C1140.897,2607.311,1140.637,2607.347,1140.384,2607.352z"/>
			
				<linearGradient id="SVGID_00000075876057433946691680000005390967586395235999_" gradientUnits="userSpaceOnUse" x1="1201.0732" y1="1020.8209" x2="1090.5773" y2="1700.5404">
				<stop  offset="0" style="stop-color:#FF928E"/>
				<stop  offset="1" style="stop-color:#FE7062"/>
			</linearGradient>
			<path style="fill:url(#SVGID_00000075876057433946691680000005390967586395235999_);" d="M1185.638,1684.537l-155.959,121.462
				c-2.253,1.755-5.562,0.424-5.971-2.403l-1.616-11.133c0,0-64.905-65.264,1.783-124.264
				c66.687-58.998,145.368,7.836,145.368,7.836l15.088,2.99C1186.947,1679.544,1187.743,1682.898,1185.638,1684.537z"/>
		</g>
	</g>
</g>
</svg>
